<?xml version="1.0" encoding="UTF-8"?> <svg xmlns="http://www.w3.org/2000/svg" width="121" height="24" viewBox="0 0 121 24" fill="none"><path fill-rule="evenodd" clip-rule="evenodd" d="M41.1323 14.4568H41.2343C41.6876 14.487 42.0163 14.5021 42.2203 14.5021C43.7804 14.5021 44.9589 14.0981 45.7447 13.294C46.5304 12.4899 46.9308 11.2856 46.9308 9.68497C46.9308 8.24285 46.5682 7.13925 45.8429 6.37415C45.1176 5.60905 44.0725 5.23153 42.7075 5.2416H41.1323V14.4568ZM34.8315 23.7135V22.2412L36.6107 22.0788L37.1584 21.6069V5.53606L36.7013 5.10947L34.7144 4.95846V3.48614H42.8549C45.7283 3.48614 47.8185 3.97188 49.1255 4.94336C50.4325 5.91483 51.0848 7.45762 51.0823 9.57171C51.0823 11.6883 50.391 13.3343 49.0084 14.5096C47.6259 15.685 45.6867 16.2714 43.1911 16.2689C42.9569 16.2689 42.666 16.2689 42.326 16.2462C41.986 16.2236 41.5705 16.2122 41.1323 16.182V21.6145L41.5894 22.0864L43.735 22.2487V23.7135H34.8315ZM52.1135 23.7135V22.3658L53.719 22.2487L54.1458 21.7919V11.38H51.9662V10.172L56.3972 8.76005H57.8553L57.7231 11.8368C58.252 11.2781 58.806 10.7458 59.3852 10.2399C59.976 9.72098 60.5925 9.2321 61.2324 8.77515C61.4024 8.74495 61.5346 8.7223 61.6404 8.71475C61.731 8.70911 61.8218 8.70911 61.9124 8.71475C62.2424 8.71548 62.5711 8.75732 62.8907 8.83933C63.2392 8.92967 63.5772 9.05619 63.8993 9.21685L63.5216 13.3884H61.9464C61.7535 13.0447 61.4717 12.7591 61.1304 12.5616C60.7815 12.3781 60.3913 12.2871 59.9972 12.2974C59.6797 12.3114 59.3673 12.3831 59.0755 12.5088C58.6524 12.6871 58.2443 12.8992 57.8553 13.143V21.7919L58.2973 22.2487L60.4467 22.3658V23.7135H52.1135ZM72.3269 10.2701C71.7934 10.2666 71.2695 10.4121 70.8143 10.6903C70.3591 10.9684 69.9907 11.3681 69.7507 11.8444C69.1312 12.8939 68.8214 14.3662 68.8214 16.2613C68.8214 18.1564 69.1287 19.6539 69.7431 20.7538C70.3589 21.8259 71.2088 22.3582 72.2967 22.3582C72.839 22.3698 73.3737 22.23 73.8408 21.9545C74.3079 21.6791 74.6889 21.279 74.941 20.7991C75.5555 19.7571 75.864 18.2747 75.8665 16.3519C75.869 14.4291 75.558 12.9366 74.9334 11.8746C74.3038 10.8125 73.435 10.2802 72.3269 10.2777V10.2701ZM72.444 8.66567C74.7584 8.66567 76.598 9.36408 77.963 10.7609C79.3279 12.1577 80.0104 14.0453 80.0104 16.4236C80.0104 18.6887 79.299 20.5046 77.8761 21.8712C76.4532 23.2378 74.5645 23.9249 72.2098 23.9325C69.9433 23.9325 68.115 23.2378 66.7249 21.8486C65.3348 20.4593 64.6372 18.6384 64.6322 16.3859C64.6322 14.0604 65.3449 12.1929 66.7702 10.7835C68.1956 9.37415 70.0869 8.67071 72.444 8.67322V8.66567ZM94.4971 22.3582C93.5837 22.8662 92.6155 23.269 91.6111 23.5587C90.6959 23.8122 89.7503 23.9392 88.8006 23.9362C86.6399 23.9362 84.8947 23.2542 83.565 21.8901C82.2353 20.526 81.5705 18.7429 81.5705 16.5407C81.5705 14.2529 82.2996 12.3779 83.7577 10.9157C84.4896 10.188 85.3629 9.61792 86.3238 9.24067C87.2847 8.86343 88.3128 8.68701 89.3446 8.7223C90.6167 8.66241 91.8776 8.98596 92.9634 9.65099C93.3747 9.8931 93.716 10.2379 93.9537 10.6515C94.1914 11.0652 94.3175 11.5335 94.3196 12.0105C94.3301 12.2861 94.282 12.5609 94.1784 12.8166C94.0749 13.0724 93.9183 13.3033 93.7189 13.4941C93.5108 13.6889 93.266 13.8405 92.9989 13.9403C92.7318 14.0401 92.4476 14.086 92.1626 14.0755C91.8412 14.079 91.5212 14.0319 91.2145 13.9358C90.9159 13.8367 90.6353 13.6901 90.3834 13.5017V10.3079C90.2406 10.2708 90.0955 10.2431 89.949 10.2248C89.8388 10.2098 89.7278 10.2022 89.6166 10.2022C88.4984 10.2022 87.5616 10.7294 86.8061 11.784C86.0119 12.9732 85.6152 14.3834 85.6729 15.8121C85.6729 17.6015 86.0896 19.0109 86.9232 20.0403C87.3301 20.5449 87.8494 20.9473 88.4398 21.2155C89.0301 21.4836 89.675 21.6099 90.323 21.5843C91.0143 21.5779 91.7003 21.462 92.3553 21.2408C93.1105 20.9879 93.8323 20.6444 94.5047 20.2177L94.4971 22.3582ZM103.257 10.2777C102.724 10.2741 102.2 10.4197 101.744 10.6978C101.289 10.976 100.921 11.3757 100.681 11.8519C100.069 12.9014 99.7629 14.3737 99.7629 16.2689C99.7629 18.164 100.07 19.6615 100.685 20.7613C101.297 21.8297 102.15 22.3658 103.238 22.3658C103.781 22.3774 104.316 22.2372 104.783 21.9611C105.251 21.6849 105.631 21.2837 105.883 20.8028C106.497 19.7659 106.805 18.2848 106.808 16.3595C106.811 14.4341 106.499 12.9417 105.875 11.8821C105.233 10.81 104.368 10.2777 103.257 10.2777ZM103.374 8.67322C105.689 8.67322 107.528 9.37163 108.893 10.7684C110.258 12.1653 110.941 14.0528 110.941 16.4312C110.941 18.6963 110.229 20.5122 108.806 21.8788C107.383 23.2454 105.495 23.9325 103.14 23.94C100.874 23.94 99.0452 23.2454 97.6551 21.8561C96.265 20.4668 95.5699 18.6434 95.5699 16.3859C95.5699 14.0604 96.2814 12.1929 97.7042 10.7835C99.1271 9.37415 101.017 8.67071 103.374 8.67322ZM112.134 23.7135V22.396L113.887 22.2185L114.314 21.7919V4.08262H112.134V2.85569L116.667 1.44H117.993V21.7315L118.465 22.2034L120.214 22.3809V23.7135H112.134Z" fill="white"></path><path d="M7.604 24C11.5827 24 14.8081 20.7768 14.8081 16.8008C14.8081 12.8248 11.5827 9.60161 7.604 9.60161C3.62529 9.60161 0.399902 12.8248 0.399902 16.8008C0.399902 20.7768 3.62529 24 7.604 24Z" fill="#FFC055"></path><path d="M13.178 0C12.2302 0.00105596 11.2919 0.188136 10.4167 0.55055C9.54146 0.912965 8.74652 1.44361 8.07725 2.11217C7.40798 2.78073 6.87751 3.5741 6.51615 4.44695C6.15478 5.3198 5.96961 6.25503 5.9712 7.19919C5.97083 7.68153 6.01819 8.16273 6.11259 8.63581C6.61341 8.54198 7.12191 8.49483 7.63151 8.49497C9.35192 8.49615 11.0297 9.02846 12.4339 10.0186C13.838 11.0088 14.8996 12.4082 15.4726 14.0241C17.0928 13.4763 18.4656 12.3738 19.3467 10.9128C20.2279 9.45171 20.5605 7.72671 20.2852 6.04444C20.01 4.36216 19.1448 2.83162 17.8435 1.7249C16.5422 0.61818 14.8891 0.00699572 13.178 0Z" fill="#FF5151"></path><path d="M21.0855 9.97585C20.6577 11.1706 19.9607 12.2525 19.0476 13.1389C18.1345 14.0254 17.0295 14.6929 15.8169 15.0905C16.0795 16.3354 16.0517 17.6234 15.7356 18.8559C15.4194 20.0884 14.8234 21.2327 13.9932 22.2012C14.7992 22.9004 15.7513 23.4134 16.7809 23.7035C17.8106 23.9936 18.8922 24.0535 19.9479 23.8788C21.0037 23.7042 22.0073 23.2994 22.8866 22.6935C23.7659 22.0876 24.4991 21.2958 25.0333 20.3749C25.5675 19.454 25.8896 18.427 25.9762 17.3678C26.0629 16.3085 25.912 15.2434 25.5345 14.2489C25.157 13.2545 24.5622 12.3555 23.7929 11.6167C23.0236 10.8778 22.099 10.3174 21.0855 9.97585V9.97585Z" fill="#5C93FF"></path></svg> 